<svg xmlns="http://www.w3.org/2000/svg" xmlns:xlink="http://www.w3.org/1999/xlink" width="120" zoomAndPan="magnify" viewBox="0 0 90 60" height="80" preserveAspectRatio="xMidYMid meet" version="1.0"><defs><clipPath id="2f18b4d09d"><path d="M 6 49 L 87.246094 49 L 87.246094 51 L 6 51 Z M 6 49 " clip-rule="nonzero"/></clipPath><clipPath id="a9fe897419"><path d="M 60 50 L 72 50 L 72 54.75 L 60 54.75 Z M 60 50 " clip-rule="nonzero"/></clipPath><clipPath id="46dffa01a9"><path d="M 32 34 L 65 34 L 65 54.75 L 32 54.75 Z M 32 34 " clip-rule="nonzero"/></clipPath><clipPath id="818f7fe808"><path d="M 34 50 L 72 50 L 72 54.75 L 34 54.75 Z M 34 50 " clip-rule="nonzero"/></clipPath><clipPath id="ea7564dfb3"><path d="M 2.496094 18 L 31 18 L 31 46 L 2.496094 46 Z M 2.496094 18 " clip-rule="nonzero"/></clipPath></defs><path fill="#8c4ea1" d="M 35.648438 17.726562 L 48.292969 17.726562 C 49.074219 17.726562 49.71875 17.101562 49.71875 16.304688 L 49.71875 7.726562 C 49.71875 6.949219 49.089844 6.304688 48.292969 6.304688 L 35.648438 6.304688 C 34.871094 6.304688 34.226562 6.933594 34.226562 7.726562 L 34.226562 16.324219 C 34.242188 17.085938 34.871094 17.726562 35.648438 17.726562 Z M 35.648438 17.726562 " fill-opacity="1" fill-rule="nonzero"/><path fill="#8c4ea1" d="M 47.546875 19.570312 L 47.546875 17.574219 L 44.988281 17.574219 L 47.34375 19.65625 C 47.429688 19.722656 47.546875 19.671875 47.546875 19.570312 Z M 47.546875 19.570312 " fill-opacity="1" fill-rule="nonzero"/><path fill="#f5b990" d="M 41.34375 34.953125 C 41.34375 34.953125 41.769531 33.53125 41.597656 32.515625 C 41.445312 31.585938 39.53125 26.390625 38.074219 25.492188 C 37.835938 25.339844 37.515625 25.425781 37.394531 25.679688 C 37.210938 26.050781 37.089844 26.796875 37.632812 28.132812 C 37.632812 28.132812 37.277344 28.167969 36.546875 28.878906 C 36.546875 28.878906 36.003906 27.777344 35.902344 27.253906 C 35.800781 26.730469 35.125 25.054688 34.480469 25.882812 L 34.480469 27.167969 C 34.480469 27.167969 33.902344 27 33.835938 27.894531 C 33.769531 28.792969 33.851562 30.652344 34.003906 31.042969 C 34.140625 31.398438 34.800781 32.972656 36.34375 33.917969 C 36.582031 34.070312 36.769531 34.292969 36.871094 34.5625 L 37.175781 35.425781 Z M 41.34375 34.953125 " fill-opacity="1" fill-rule="nonzero"/><path fill="#f5b990" d="M 76.839844 39.300781 L 78.753906 50.011719 L 70.378906 49.976562 L 69.378906 39.996094 Z M 76.839844 39.300781 " fill-opacity="1" fill-rule="nonzero"/><g clip-path="url(#2f18b4d09d)"><path fill="#280b06" d="M 6.019531 49.824219 L 87.246094 49.824219 L 87.246094 50.09375 L 6.019531 50.09375 Z M 6.019531 49.824219 " fill-opacity="1" fill-rule="nonzero"/></g><path fill="#280b06" d="M 67.226562 11.789062 C 67.226562 11.789062 68.890625 8.589844 73.058594 10.976562 C 77.226562 13.363281 74.042969 19.335938 74.042969 19.335938 C 74.042969 19.335938 77.6875 20.535156 74.804688 25.679688 C 74.804688 25.679688 77.753906 26.609375 77.007812 30.484375 C 76.246094 34.375 71.667969 33.816406 71.175781 32.9375 C 71.175781 32.9375 67.160156 30.636719 68.71875 25.96875 C 68.71875 25.96875 66.429688 23.058594 68.347656 19.84375 Z M 67.226562 11.789062 " fill-opacity="1" fill-rule="nonzero"/><path fill="#280b06" d="M 59.058594 8.742188 C 59.058594 8.742188 64.601562 6.679688 67.941406 12.007812 C 71.277344 17.339844 68.246094 23.851562 63.992188 23.445312 Z M 59.058594 8.742188 " fill-opacity="1" fill-rule="nonzero"/><path fill="#ffae41" d="M 55.160156 28.640625 C 55.160156 28.640625 51.652344 28.808594 48.972656 31.363281 C 46.292969 33.917969 44.71875 39.640625 44.71875 39.640625 L 45.378906 50.011719 L 71.160156 50.011719 L 70.175781 43.007812 C 70.175781 43.007812 71.246094 42.9375 71.738281 41.601562 C 71.738281 41.601562 74.398438 43.410156 75.480469 40.6875 C 75.480469 40.6875 77.074219 41.433594 78.042969 39.976562 C 78.617188 39.097656 78.585938 37.945312 78.007812 37.050781 L 73.429688 30.046875 C 73.429688 30.046875 72.667969 28.726562 70.398438 28.421875 C 68.125 28.117188 64.480469 27.320312 64.480469 27.320312 Z M 55.160156 28.640625 " fill-opacity="1" fill-rule="nonzero"/><path fill="#ef7a28" d="M 57.058594 28.335938 C 57.058594 28.335938 55.957031 27.945312 55.160156 28.65625 C 54.429688 29.316406 54.5 30.433594 55.261719 31.058594 C 55.566406 31.3125 55.972656 31.464844 56.480469 31.332031 C 56.480469 31.332031 54.347656 34.578125 58.566406 35.222656 C 62.804688 35.847656 65.703125 32.515625 63.058594 31.515625 C 63.058594 31.515625 68.789062 28.828125 64.3125 27.085938 Z M 57.058594 28.335938 " fill-opacity="1" fill-rule="nonzero"/><path fill="#f5b990" d="M 64.804688 21.210938 L 64.3125 27.066406 L 64.3125 27.117188 L 58.804688 34.15625 L 57.058594 28.335938 L 57.058594 24.308594 Z M 64.804688 21.210938 " fill-opacity="1" fill-rule="nonzero"/><path fill="#d67e57" d="M 64.804688 21.210938 L 64.3125 27.066406 L 57.058594 25.511719 L 57.058594 24.308594 Z M 64.804688 21.210938 " fill-opacity="1" fill-rule="nonzero"/><path fill="#f5b990" d="M 64.804688 13.191406 L 64.804688 21.636719 C 60.632812 27.539062 56.125 25.644531 54.53125 24.207031 C 54.242188 23.9375 54.023438 23.429688 53.855469 22.785156 C 53.667969 22.058594 53.550781 21.144531 53.464844 20.179688 C 53.226562 17.289062 53.398438 13.988281 53.398438 13.988281 C 56.769531 7.695312 64.804688 13.191406 64.804688 13.191406 Z M 64.804688 13.191406 " fill-opacity="1" fill-rule="nonzero"/><path fill="#280b06" d="M 60.261719 18.335938 C 60.261719 18.484375 60.226562 18.613281 60.15625 18.71875 C 60.085938 18.824219 60.003906 18.878906 59.90625 18.878906 C 59.808594 18.878906 59.722656 18.824219 59.652344 18.71875 C 59.585938 18.613281 59.550781 18.484375 59.550781 18.335938 C 59.550781 18.1875 59.585938 18.058594 59.652344 17.953125 C 59.722656 17.847656 59.808594 17.792969 59.90625 17.792969 C 60.003906 17.792969 60.085938 17.847656 60.15625 17.953125 C 60.226562 18.058594 60.261719 18.1875 60.261719 18.335938 Z M 60.261719 18.335938 " fill-opacity="1" fill-rule="nonzero"/><path fill="#280b06" d="M 59.058594 16.847656 C 59.144531 16.695312 59.261719 16.558594 59.414062 16.457031 C 59.566406 16.355469 59.753906 16.289062 59.9375 16.289062 C 60.125 16.289062 60.328125 16.375 60.449219 16.492188 C 60.515625 16.542969 60.566406 16.628906 60.617188 16.695312 C 60.667969 16.78125 60.703125 16.847656 60.734375 16.933594 C 60.667969 16.882812 60.601562 16.832031 60.53125 16.78125 C 60.464844 16.746094 60.398438 16.679688 60.328125 16.644531 C 60.195312 16.558594 60.058594 16.527344 59.921875 16.527344 C 59.652344 16.527344 59.363281 16.679688 59.058594 16.847656 Z M 59.058594 16.847656 " fill-opacity="1" fill-rule="nonzero"/><path fill="#280b06" d="M 55.261719 18.335938 C 55.261719 18.484375 55.226562 18.613281 55.15625 18.71875 C 55.085938 18.824219 55.003906 18.878906 54.90625 18.878906 C 54.808594 18.878906 54.722656 18.824219 54.652344 18.71875 C 54.582031 18.613281 54.550781 18.484375 54.550781 18.335938 C 54.550781 18.1875 54.582031 18.058594 54.652344 17.953125 C 54.722656 17.847656 54.808594 17.792969 54.90625 17.792969 C 55.003906 17.792969 55.085938 17.847656 55.15625 17.953125 C 55.226562 18.058594 55.261719 18.1875 55.261719 18.335938 Z M 55.261719 18.335938 " fill-opacity="1" fill-rule="nonzero"/><path fill="#280b06" d="M 54.058594 16.847656 C 54.140625 16.695312 54.261719 16.558594 54.414062 16.457031 C 54.566406 16.355469 54.753906 16.289062 54.9375 16.289062 C 55.125 16.289062 55.328125 16.375 55.449219 16.492188 C 55.515625 16.542969 55.566406 16.628906 55.617188 16.695312 C 55.667969 16.78125 55.703125 16.847656 55.734375 16.933594 C 55.667969 16.882812 55.601562 16.832031 55.53125 16.78125 C 55.464844 16.746094 55.398438 16.679688 55.328125 16.644531 C 55.191406 16.558594 55.058594 16.527344 54.921875 16.527344 C 54.632812 16.527344 54.347656 16.679688 54.058594 16.847656 Z M 54.058594 16.847656 " fill-opacity="1" fill-rule="nonzero"/><path fill="#280b06" d="M 57.296875 17.457031 C 57.296875 17.761719 57.277344 18.066406 57.246094 18.371094 C 57.210938 18.675781 57.140625 18.960938 57.058594 19.265625 C 56.972656 19.554688 56.855469 19.84375 56.703125 20.113281 C 56.550781 20.382812 56.347656 20.636719 56.089844 20.839844 L 56.109375 20.65625 C 56.210938 20.753906 56.378906 20.855469 56.53125 20.941406 C 56.683594 21.027344 56.855469 21.078125 57.023438 21.109375 C 57.191406 21.144531 57.378906 21.160156 57.550781 21.160156 C 57.734375 21.160156 57.90625 21.144531 58.089844 21.109375 C 57.921875 21.179688 57.734375 21.230469 57.550781 21.261719 C 57.363281 21.296875 57.175781 21.296875 56.988281 21.28125 C 56.804688 21.261719 56.617188 21.210938 56.429688 21.144531 C 56.246094 21.058594 56.089844 20.976562 55.921875 20.839844 L 55.820312 20.753906 L 55.9375 20.671875 C 56.160156 20.484375 56.328125 20.265625 56.464844 20.011719 C 56.617188 19.757812 56.71875 19.488281 56.820312 19.214844 C 57.039062 18.625 57.191406 18.046875 57.296875 17.457031 Z M 57.296875 17.457031 " fill-opacity="1" fill-rule="nonzero"/><path fill="#f78a5a" d="M 63.195312 20.671875 C 63.195312 20.847656 63.160156 21.019531 63.089844 21.183594 C 63.023438 21.347656 62.925781 21.492188 62.800781 21.617188 C 62.675781 21.742188 62.53125 21.839844 62.367188 21.90625 C 62.203125 21.972656 62.03125 22.007812 61.855469 22.007812 C 61.675781 22.007812 61.507812 21.972656 61.34375 21.90625 C 61.179688 21.839844 61.035156 21.742188 60.90625 21.617188 C 60.78125 21.492188 60.683594 21.347656 60.617188 21.183594 C 60.550781 21.019531 60.515625 20.847656 60.515625 20.671875 C 60.515625 20.492188 60.550781 20.324219 60.617188 20.160156 C 60.683594 19.996094 60.78125 19.851562 60.90625 19.726562 C 61.035156 19.601562 61.179688 19.503906 61.34375 19.4375 C 61.507812 19.367188 61.675781 19.335938 61.855469 19.335938 C 62.03125 19.335938 62.203125 19.367188 62.367188 19.4375 C 62.53125 19.503906 62.675781 19.601562 62.800781 19.726562 C 62.925781 19.851562 63.023438 19.996094 63.089844 20.160156 C 63.160156 20.324219 63.195312 20.492188 63.195312 20.671875 Z M 63.195312 20.671875 " fill-opacity="1" fill-rule="nonzero"/><path fill="#f78a5a" d="M 55.242188 21.433594 C 55.242188 22.175781 54.652344 22.769531 53.90625 22.769531 C 53.886719 22.769531 53.855469 22.769531 53.835938 22.769531 C 53.652344 22.042969 53.53125 21.128906 53.449219 20.164062 C 53.582031 20.113281 53.753906 20.078125 53.90625 20.078125 C 54.652344 20.097656 55.242188 20.6875 55.242188 21.433594 Z M 55.242188 21.433594 " fill-opacity="1" fill-rule="nonzero"/><path fill="#280b06" d="M 56.296875 22.632812 L 58.515625 22.246094 C 58.515625 22.246094 58.886719 23.632812 57.683594 23.902344 C 56.464844 24.191406 56.296875 22.632812 56.296875 22.632812 Z M 56.296875 22.632812 " fill-opacity="1" fill-rule="nonzero"/><path fill="#280b06" d="M 57.429688 12.652344 C 57.429688 12.652344 57.398438 15.15625 53.328125 16.152344 L 53.328125 17.21875 C 53.328125 17.21875 50.363281 16.578125 51.804688 12.632812 C 53.242188 8.691406 56.074219 8.25 57.785156 9.183594 C 57.785156 9.183594 61.988281 6.863281 64.414062 11.585938 C 66.839844 16.304688 65.652344 17.640625 65.652344 17.640625 C 65.652344 17.640625 58.617188 17.792969 57.429688 12.652344 Z M 57.429688 12.652344 " fill-opacity="1" fill-rule="nonzero"/><path fill="#ff503f" d="M 59.550781 8.589844 C 60.566406 8.65625 61.550781 8.996094 62.449219 9.503906 C 63.347656 10.011719 64.125 10.722656 64.71875 11.585938 C 65.3125 12.429688 65.703125 13.414062 65.90625 14.410156 C 66.109375 15.410156 66.144531 16.441406 66.023438 17.441406 C 65.957031 16.441406 65.820312 15.441406 65.550781 14.496094 C 65.296875 13.546875 64.886719 12.632812 64.328125 11.839844 C 64.058594 11.433594 63.734375 11.0625 63.398438 10.722656 C 63.058594 10.382812 62.667969 10.078125 62.261719 9.808594 C 61.429688 9.285156 60.515625 8.859375 59.550781 8.589844 Z M 59.550781 8.589844 " fill-opacity="1" fill-rule="nonzero"/><path fill="#6f4545" d="M 62.515625 23.3125 C 61.820312 23.3125 61.007812 23.175781 60.074219 22.886719 L 60.144531 22.667969 C 61.9375 23.210938 63.328125 23.210938 64.175781 22.667969 C 64.835938 22.246094 64.921875 21.652344 64.921875 21.617188 L 65.160156 21.652344 C 65.160156 21.6875 65.058594 22.378906 64.3125 22.871094 C 63.835938 23.160156 63.226562 23.3125 62.515625 23.3125 Z M 62.515625 23.3125 " fill-opacity="1" fill-rule="nonzero"/><path fill="#6f4545" d="M 59.945312 22.070312 C 60.238281 22.117188 60.472656 22.226562 60.65625 22.398438 C 60.839844 22.570312 60.917969 22.75 60.882812 22.945312 C 60.851562 23.136719 60.722656 23.285156 60.496094 23.390625 C 60.265625 23.492188 60.007812 23.519531 59.714844 23.472656 C 59.425781 23.425781 59.1875 23.316406 59.003906 23.144531 C 58.820312 22.976562 58.746094 22.792969 58.777344 22.597656 C 58.808594 22.40625 58.9375 22.257812 59.167969 22.152344 C 59.394531 22.050781 59.65625 22.023438 59.945312 22.070312 Z M 59.945312 22.070312 " fill-opacity="1" fill-rule="nonzero"/><path fill="#cd1319" d="M 64.855469 17.167969 C 64.855469 17.167969 64.820312 15.78125 65.941406 15.898438 C 67.058594 16.019531 66.804688 17.441406 66.804688 17.441406 Z M 64.855469 17.167969 " fill-opacity="1" fill-rule="nonzero"/><path fill="#ff503f" d="M 68.328125 19.65625 C 68.328125 20.015625 68.261719 20.359375 68.125 20.691406 C 67.984375 21.023438 67.789062 21.316406 67.535156 21.570312 C 67.28125 21.824219 66.988281 22.019531 66.65625 22.15625 C 66.324219 22.292969 65.976562 22.363281 65.617188 22.363281 C 65.257812 22.363281 64.910156 22.292969 64.578125 22.15625 C 64.246094 22.019531 63.953125 21.824219 63.699219 21.570312 C 63.445312 21.316406 63.25 21.023438 63.113281 20.691406 C 62.972656 20.359375 62.90625 20.015625 62.90625 19.65625 C 62.90625 19.296875 62.972656 18.953125 63.113281 18.621094 C 63.25 18.289062 63.445312 17.996094 63.699219 17.742188 C 63.953125 17.488281 64.246094 17.292969 64.578125 17.15625 C 64.910156 17.015625 65.257812 16.949219 65.617188 16.949219 C 65.976562 16.949219 66.324219 17.015625 66.65625 17.15625 C 66.988281 17.292969 67.28125 17.488281 67.535156 17.742188 C 67.789062 17.996094 67.984375 18.289062 68.125 18.621094 C 68.261719 18.953125 68.328125 19.296875 68.328125 19.65625 Z M 68.328125 19.65625 " fill-opacity="1" fill-rule="nonzero"/><path fill="#cd1319" d="M 67.414062 19.570312 C 67.414062 19.765625 67.378906 19.949219 67.304688 20.128906 C 67.230469 20.304688 67.125 20.464844 66.988281 20.601562 C 66.851562 20.738281 66.691406 20.84375 66.515625 20.914062 C 66.335938 20.988281 66.148438 21.027344 65.957031 21.027344 C 65.761719 21.027344 65.578125 20.988281 65.398438 20.914062 C 65.21875 20.84375 65.0625 20.738281 64.925781 20.601562 C 64.789062 20.464844 64.683594 20.304688 64.609375 20.128906 C 64.535156 19.949219 64.5 19.765625 64.5 19.570312 C 64.5 19.378906 64.535156 19.191406 64.609375 19.015625 C 64.683594 18.835938 64.789062 18.679688 64.925781 18.542969 C 65.0625 18.40625 65.21875 18.300781 65.398438 18.226562 C 65.578125 18.152344 65.761719 18.117188 65.957031 18.117188 C 66.148438 18.117188 66.335938 18.152344 66.515625 18.226562 C 66.691406 18.300781 66.851562 18.40625 66.988281 18.542969 C 67.125 18.679688 67.230469 18.835938 67.304688 19.015625 C 67.378906 19.191406 67.414062 19.378906 67.414062 19.570312 Z M 67.414062 19.570312 " fill-opacity="1" fill-rule="nonzero"/><path fill="#6f4545" d="M 67.515625 11.382812 C 68.195312 12.042969 68.703125 12.886719 69.042969 13.785156 C 69.398438 14.679688 69.550781 15.644531 69.550781 16.609375 C 69.515625 17.574219 69.328125 18.523438 68.992188 19.417969 C 68.820312 19.875 68.617188 20.300781 68.398438 20.722656 C 68.277344 20.925781 68.160156 21.128906 68.023438 21.332031 C 67.890625 21.535156 67.753906 21.71875 67.617188 21.921875 C 68.09375 21.109375 68.515625 20.25 68.820312 19.367188 C 69.125 18.488281 69.3125 17.558594 69.3125 16.609375 C 69.347656 15.679688 69.175781 14.75 68.871094 13.851562 C 68.71875 13.414062 68.53125 12.972656 68.296875 12.566406 C 68.074219 12.144531 67.820312 11.738281 67.515625 11.382812 Z M 67.515625 11.382812 " fill-opacity="1" fill-rule="nonzero"/><g clip-path="url(#a9fe897419)"><path fill="#c592e9" d="M 71.175781 50.011719 L 71.175781 51.839844 L 64.804688 54.714844 L 63.617188 53.410156 L 60.515625 50.011719 Z M 71.175781 50.011719 " fill-opacity="1" fill-rule="nonzero"/></g><g clip-path="url(#46dffa01a9)"><path fill="#4f1d62" d="M 64.804688 54.714844 L 34.921875 54.714844 L 34.734375 53.410156 L 32.105469 34.648438 L 61.363281 34.648438 L 63.992188 50.011719 L 64.582031 53.410156 Z M 64.804688 54.714844 " fill-opacity="1" fill-rule="nonzero"/></g><g clip-path="url(#818f7fe808)"><path fill="#8c4ea1" d="M 71.175781 50.011719 L 71.175781 51.839844 L 64.804688 54.714844 L 34.921875 54.714844 L 34.734375 53.410156 L 64.617188 53.410156 Z M 71.175781 50.011719 " fill-opacity="1" fill-rule="nonzero"/></g><path fill="#c592e9" d="M 49.601562 44.699219 C 49.601562 44.972656 49.546875 45.238281 49.441406 45.496094 C 49.335938 45.75 49.183594 45.972656 48.988281 46.167969 C 48.792969 46.363281 48.566406 46.515625 48.3125 46.621094 C 48.058594 46.726562 47.792969 46.777344 47.515625 46.777344 C 47.238281 46.777344 46.972656 46.726562 46.71875 46.621094 C 46.460938 46.515625 46.234375 46.363281 46.039062 46.167969 C 45.84375 45.972656 45.695312 45.75 45.589844 45.496094 C 45.484375 45.238281 45.429688 44.972656 45.429688 44.699219 C 45.429688 44.421875 45.484375 44.15625 45.589844 43.902344 C 45.695312 43.648438 45.84375 43.421875 46.039062 43.226562 C 46.234375 43.03125 46.460938 42.878906 46.71875 42.773438 C 46.972656 42.667969 47.238281 42.617188 47.515625 42.617188 C 47.792969 42.617188 48.058594 42.667969 48.3125 42.773438 C 48.566406 42.878906 48.792969 43.03125 48.988281 43.226562 C 49.183594 43.421875 49.335938 43.648438 49.441406 43.902344 C 49.546875 44.15625 49.601562 44.421875 49.601562 44.699219 Z M 49.601562 44.699219 " fill-opacity="1" fill-rule="nonzero"/><path fill="#ef7a28" d="M 50.160156 30.417969 C 50.429688 30.382812 50.71875 30.449219 50.972656 30.585938 C 51.226562 30.703125 51.449219 30.90625 51.617188 31.109375 C 51.804688 31.332031 51.921875 31.566406 52.039062 31.820312 C 52.089844 31.957031 52.125 32.074219 52.175781 32.210938 C 52.210938 32.347656 52.226562 32.480469 52.242188 32.617188 C 52.175781 32.5 52.125 32.378906 52.058594 32.246094 L 51.871094 31.890625 C 51.734375 31.667969 51.601562 31.433594 51.429688 31.246094 C 51.109375 30.875 50.683594 30.550781 50.160156 30.417969 Z M 50.160156 30.417969 " fill-opacity="1" fill-rule="nonzero"/><path fill="#ef7a28" d="M 68.09375 34.15625 C 68.109375 34.851562 68.109375 35.527344 68.125 36.222656 C 68.125 36.914062 68.109375 37.589844 68.09375 38.285156 C 68.074219 38.980469 68.042969 39.65625 67.992188 40.347656 C 67.941406 41.042969 67.871094 41.71875 67.753906 42.414062 L 67.703125 42.296875 C 68.042969 42.5 68.398438 42.652344 68.789062 42.769531 C 69.160156 42.886719 69.550781 42.9375 69.941406 42.90625 C 70.328125 42.871094 70.6875 42.734375 70.992188 42.5 C 71.277344 42.261719 71.5 41.921875 71.667969 41.566406 L 71.71875 41.449219 L 71.820312 41.515625 C 72.125 41.71875 72.464844 41.890625 72.820312 42.007812 C 73.175781 42.125 73.550781 42.175781 73.90625 42.125 C 74.261719 42.074219 74.601562 41.890625 74.855469 41.617188 C 75.109375 41.347656 75.296875 41.027344 75.449219 40.671875 L 75.480469 40.601562 L 75.550781 40.636719 C 75.804688 40.753906 76.09375 40.824219 76.378906 40.855469 C 76.667969 40.875 76.957031 40.839844 77.226562 40.722656 C 77.5 40.601562 77.71875 40.417969 77.90625 40.195312 C 78.09375 39.976562 78.246094 39.722656 78.363281 39.453125 C 78.261719 39.722656 78.125 39.992188 77.941406 40.230469 C 77.753906 40.46875 77.535156 40.671875 77.261719 40.789062 C 76.992188 40.925781 76.6875 40.976562 76.378906 40.976562 C 76.074219 40.957031 75.789062 40.890625 75.5 40.773438 L 75.585938 40.738281 C 75.449219 41.109375 75.261719 41.449219 74.992188 41.753906 C 74.855469 41.90625 74.703125 42.023438 74.515625 42.125 C 74.347656 42.226562 74.144531 42.296875 73.941406 42.328125 C 73.53125 42.398438 73.125 42.347656 72.753906 42.226562 C 72.378906 42.109375 72.023438 41.941406 71.6875 41.703125 L 71.839844 41.652344 C 71.667969 42.023438 71.429688 42.398438 71.109375 42.667969 C 70.789062 42.9375 70.363281 43.109375 69.941406 43.140625 C 69.515625 43.175781 69.09375 43.109375 68.703125 42.988281 C 68.3125 42.871094 67.921875 42.703125 67.566406 42.480469 L 67.5 42.449219 L 67.515625 42.378906 C 67.632812 41.703125 67.703125 41.027344 67.769531 40.347656 C 67.839844 39.671875 67.890625 38.980469 67.921875 38.285156 C 67.992188 36.914062 68.042969 35.527344 68.09375 34.15625 Z M 68.09375 34.15625 " fill-opacity="1" fill-rule="nonzero"/><path fill="#ef7a28" d="M 68.839844 30.703125 C 68.890625 30.351562 69.042969 29.996094 69.226562 29.691406 C 69.429688 29.386719 69.703125 29.097656 70.023438 28.929688 C 70.363281 28.742188 70.738281 28.65625 71.109375 28.691406 C 71.296875 28.691406 71.480469 28.742188 71.652344 28.777344 C 71.820312 28.828125 71.992188 28.910156 72.160156 28.980469 C 71.972656 28.960938 71.804688 28.910156 71.632812 28.894531 L 71.363281 28.878906 C 71.277344 28.859375 71.195312 28.859375 71.109375 28.878906 C 70.769531 28.878906 70.429688 28.980469 70.144531 29.148438 C 69.839844 29.300781 69.582031 29.554688 69.378906 29.824219 C 69.175781 30.078125 68.992188 30.382812 68.839844 30.703125 Z M 68.839844 30.703125 " fill-opacity="1" fill-rule="nonzero"/><path fill="#ef7a28" d="M 63.210938 43.53125 C 63.480469 43.800781 63.785156 44.019531 64.125 44.207031 C 64.464844 44.375 64.804688 44.511719 65.175781 44.5625 C 65.261719 44.578125 65.363281 44.578125 65.449219 44.597656 C 65.53125 44.613281 65.632812 44.613281 65.71875 44.597656 C 65.804688 44.597656 65.90625 44.597656 66.007812 44.597656 C 66.09375 44.578125 66.195312 44.578125 66.296875 44.5625 C 66.398438 44.5625 66.480469 44.527344 66.566406 44.511719 L 66.839844 44.460938 C 67.023438 44.410156 67.210938 44.34375 67.398438 44.308594 C 67.226562 44.410156 67.058594 44.496094 66.871094 44.578125 C 66.683594 44.648438 66.5 44.714844 66.3125 44.75 C 65.921875 44.851562 65.515625 44.851562 65.125 44.800781 C 64.347656 44.664062 63.601562 44.207031 63.210938 43.53125 Z M 63.210938 43.53125 " fill-opacity="1" fill-rule="nonzero"/><path fill="#d67e57" d="M 35.226562 32.109375 C 35.074219 31.804688 35.023438 31.449219 35.058594 31.109375 C 35.074219 30.773438 35.210938 30.433594 35.378906 30.128906 C 35.566406 29.824219 35.800781 29.589844 36.003906 29.335938 C 36.226562 29.082031 36.429688 28.808594 36.683594 28.574219 C 36.820312 28.453125 36.953125 28.351562 37.109375 28.269531 C 37.175781 28.21875 37.261719 28.183594 37.34375 28.148438 C 37.414062 28.117188 37.53125 28.066406 37.632812 28.066406 C 37.835938 28.066406 38.074219 28.21875 38.109375 28.4375 C 38.140625 28.640625 38.109375 28.808594 38.058594 28.980469 C 38.007812 29.148438 37.9375 29.300781 37.871094 29.453125 C 37.800781 29.605469 37.75 29.757812 37.683594 29.925781 C 37.566406 30.230469 37.445312 30.550781 37.429688 30.890625 C 37.414062 30.722656 37.429688 30.550781 37.464844 30.382812 C 37.496094 30.214844 37.53125 30.046875 37.582031 29.894531 C 37.667969 29.570312 37.800781 29.25 37.886719 28.945312 C 37.921875 28.792969 37.9375 28.625 37.902344 28.488281 C 37.871094 28.371094 37.75 28.285156 37.632812 28.300781 C 37.566406 28.300781 37.53125 28.320312 37.445312 28.371094 C 37.378906 28.402344 37.292969 28.4375 37.226562 28.488281 C 37.089844 28.574219 36.953125 28.65625 36.835938 28.777344 C 36.597656 28.996094 36.394531 29.25 36.160156 29.503906 C 35.9375 29.757812 35.699219 29.996094 35.515625 30.265625 C 35.160156 30.753906 35.023438 31.464844 35.226562 32.109375 Z M 35.226562 32.109375 " fill-opacity="1" fill-rule="nonzero"/><path fill="#d67e57" d="M 36.75 33.023438 C 36.769531 32.652344 36.851562 32.296875 36.9375 31.941406 C 37.039062 31.585938 37.175781 31.230469 37.34375 30.90625 C 37.515625 30.570312 37.75 30.265625 38.007812 29.996094 C 38.277344 29.722656 38.597656 29.519531 38.9375 29.351562 C 39.039062 29.335938 39.125 29.316406 39.226562 29.335938 C 39.328125 29.351562 39.429688 29.386719 39.515625 29.46875 C 39.683594 29.640625 39.683594 29.859375 39.667969 30.027344 C 39.617188 30.382812 39.480469 30.703125 39.363281 31.007812 C 39.226562 31.3125 39.074219 31.617188 38.957031 31.921875 C 38.835938 32.226562 38.820312 32.566406 38.851562 32.886719 C 38.769531 32.566406 38.75 32.210938 38.835938 31.890625 C 38.9375 31.566406 39.089844 31.261719 39.191406 30.941406 C 39.292969 30.636719 39.414062 30.316406 39.445312 30.011719 C 39.464844 29.859375 39.429688 29.707031 39.363281 29.640625 C 39.292969 29.554688 39.125 29.554688 39.007812 29.589844 L 39.023438 29.589844 C 38.699219 29.742188 38.394531 29.925781 38.140625 30.179688 C 37.886719 30.433594 37.667969 30.703125 37.480469 31.027344 C 37.292969 31.332031 37.140625 31.667969 37.023438 32.007812 C 36.9375 32.3125 36.835938 32.667969 36.75 33.023438 Z M 36.75 33.023438 " fill-opacity="1" fill-rule="nonzero"/><path fill="#d67e57" d="M 40.039062 32.246094 C 39.851562 32.125 39.699219 31.972656 39.566406 31.820312 C 39.429688 31.667969 39.3125 31.535156 39.140625 31.382812 C 39.261719 31.363281 39.378906 31.398438 39.480469 31.449219 C 39.582031 31.5 39.667969 31.566406 39.75 31.652344 C 39.820312 31.738281 39.886719 31.820312 39.9375 31.921875 C 39.988281 32.023438 40.023438 32.125 40.039062 32.246094 Z M 40.039062 32.246094 " fill-opacity="1" fill-rule="nonzero"/><path fill="#d67e57" d="M 34.480469 27.167969 C 34.75 27.203125 34.988281 27.40625 35.089844 27.660156 C 35.160156 27.777344 35.175781 27.929688 35.191406 28.066406 L 35.226562 28.453125 C 35.242188 28.707031 35.277344 28.945312 35.34375 29.183594 C 35.414062 29.417969 35.546875 29.640625 35.683594 29.859375 C 35.480469 29.707031 35.292969 29.503906 35.175781 29.25 C 35.058594 28.996094 35.003906 28.726562 34.988281 28.472656 L 34.972656 28.082031 C 34.972656 27.964844 34.953125 27.84375 34.921875 27.726562 C 34.871094 27.507812 34.71875 27.304688 34.480469 27.167969 Z M 34.480469 27.167969 " fill-opacity="1" fill-rule="nonzero"/><g clip-path="url(#ea7564dfb3)"><path fill="#ffae41" d="M 30.105469 31.957031 C 30.105469 35.867188 28.480469 39.402344 25.851562 41.90625 C 23.378906 44.273438 20.003906 45.746094 16.292969 45.746094 C 13.765625 45.746094 11.378906 45.070312 9.34375 43.867188 C 5.257812 41.484375 2.496094 37.050781 2.496094 31.957031 C 2.496094 24.34375 8.683594 18.167969 16.308594 18.167969 C 23.9375 18.167969 30.105469 24.359375 30.105469 31.957031 Z M 30.105469 31.957031 " fill-opacity="1" fill-rule="nonzero"/></g><path fill="#006f5d" d="M 25.851562 41.90625 C 23.378906 44.273438 20.003906 45.746094 16.292969 45.746094 C 13.765625 45.746094 11.378906 45.070312 9.34375 43.867188 L 11.191406 22.835938 C 11.191406 22.835938 16.496094 22.90625 19.410156 22.734375 C 22.308594 22.566406 24.191406 23.835938 24.191406 23.835938 C 24.800781 26.441406 25.496094 36.121094 25.851562 41.90625 Z M 25.851562 41.90625 " fill-opacity="1" fill-rule="nonzero"/><path fill="#f5b990" d="M 19.023438 20.164062 C 19.023438 20.164062 19.023438 23.074219 22.125 22.835938 L 26.125 33.429688 C 26.125 33.429688 28.667969 37.964844 31.582031 34.648438 C 34.496094 31.332031 23.242188 21.179688 23.277344 19.742188 Z M 19.023438 20.164062 " fill-opacity="1" fill-rule="nonzero"/><path fill="#3f222a" d="M 23.683594 21.058594 L 21.242188 22.414062 C 20.835938 22.632812 20.328125 22.5 20.089844 22.09375 L 16.9375 16.40625 C 16.714844 16 16.851562 15.492188 17.257812 15.257812 L 19.699219 13.902344 C 20.105469 13.683594 20.617188 13.820312 20.851562 14.226562 L 24.023438 19.894531 C 24.226562 20.316406 24.089844 20.824219 23.683594 21.058594 Z M 23.683594 21.058594 " fill-opacity="1" fill-rule="nonzero"/><path fill="#ffffff" d="M 22.835938 20.0625 L 20.835938 21.179688 C 20.511719 21.347656 20.125 21.246094 19.9375 20.925781 L 17.5625 16.644531 C 17.394531 16.324219 17.496094 15.933594 17.820312 15.746094 L 19.820312 14.628906 C 20.140625 14.460938 20.53125 14.5625 20.71875 14.882812 L 23.089844 19.164062 C 23.277344 19.488281 23.15625 19.894531 22.835938 20.0625 Z M 22.835938 20.0625 " fill-opacity="1" fill-rule="nonzero"/><path fill="#00453c" d="M 13.191406 21.246094 C 13.191406 21.246094 12.140625 21.210938 11.175781 22.835938 C 11.175781 22.835938 14.023438 26.476562 17.039062 26.527344 L 17.5625 24.527344 C 17.5625 24.527344 18.886719 26.101562 19.5625 26.171875 C 19.5625 26.171875 19.785156 24.054688 19.394531 22.734375 L 18.683594 22.363281 Z M 13.191406 21.246094 " fill-opacity="1" fill-rule="nonzero"/><path fill="#f5b990" d="M 18.9375 19.945312 L 18.886719 20.535156 L 18.886719 20.671875 L 18.820312 21.28125 L 18.699219 22.378906 C 18.429688 23.785156 17.582031 24.527344 17.582031 24.527344 C 15.410156 23.96875 14.105469 22.550781 13.53125 21.769531 C 13.292969 21.464844 13.191406 21.261719 13.191406 21.261719 L 13.5625 18.640625 L 13.664062 17.878906 L 18.902344 19.945312 Z M 18.9375 19.945312 " fill-opacity="1" fill-rule="nonzero"/><path fill="#d67e57" d="M 18.886719 20.535156 L 18.886719 20.671875 L 18.820312 21.28125 L 13.546875 21.769531 C 13.308594 21.464844 13.207031 21.261719 13.207031 21.261719 L 13.582031 18.640625 Z M 18.886719 20.535156 " fill-opacity="1" fill-rule="nonzero"/><path fill="#f5b990" d="M 21.648438 12.566406 C 21.648438 12.566406 21.648438 14.800781 21.378906 16.882812 C 21.277344 17.625 21.140625 18.371094 20.972656 18.960938 C 20.75 19.671875 20.480469 20.199219 20.105469 20.367188 C 20.105469 20.367188 17.257812 22.9375 13.734375 18.707031 L 13.277344 14.597656 C 13.277344 14.597656 17.496094 6.964844 21.648438 12.566406 Z M 21.648438 12.566406 " fill-opacity="1" fill-rule="nonzero"/><path fill="#280b06" d="M 17.480469 15.78125 C 17.480469 15.917969 17.449219 16.03125 17.386719 16.128906 C 17.324219 16.222656 17.246094 16.273438 17.15625 16.273438 C 17.070312 16.273438 16.992188 16.222656 16.929688 16.128906 C 16.867188 16.03125 16.835938 15.917969 16.835938 15.78125 C 16.835938 15.644531 16.867188 15.53125 16.929688 15.433594 C 16.992188 15.339844 17.070312 15.289062 17.15625 15.289062 C 17.246094 15.289062 17.324219 15.339844 17.386719 15.433594 C 17.449219 15.53125 17.480469 15.644531 17.480469 15.78125 Z M 17.480469 15.78125 " fill-opacity="1" fill-rule="nonzero"/><path fill="#280b06" d="M 17.902344 14.445312 C 17.648438 14.292969 17.378906 14.15625 17.125 14.15625 C 17.003906 14.15625 16.871094 14.191406 16.75 14.257812 C 16.683594 14.292969 16.632812 14.34375 16.582031 14.375 C 16.53125 14.425781 16.460938 14.476562 16.410156 14.511719 C 16.445312 14.445312 16.480469 14.375 16.511719 14.308594 C 16.5625 14.242188 16.597656 14.175781 16.664062 14.125 C 16.785156 14.003906 16.953125 13.9375 17.125 13.9375 C 17.292969 13.9375 17.460938 13.988281 17.597656 14.089844 C 17.734375 14.191406 17.835938 14.308594 17.902344 14.445312 Z M 17.902344 14.445312 " fill-opacity="1" fill-rule="nonzero"/><path fill="#280b06" d="M 20.71875 15.644531 C 20.71875 15.78125 20.683594 15.898438 20.621094 15.992188 C 20.558594 16.089844 20.484375 16.136719 20.394531 16.136719 C 20.304688 16.136719 20.230469 16.089844 20.167969 15.992188 C 20.105469 15.898438 20.074219 15.78125 20.074219 15.644531 C 20.074219 15.511719 20.105469 15.394531 20.167969 15.300781 C 20.230469 15.203125 20.304688 15.15625 20.394531 15.15625 C 20.484375 15.15625 20.558594 15.203125 20.621094 15.300781 C 20.683594 15.394531 20.71875 15.511719 20.71875 15.644531 Z M 20.71875 15.644531 " fill-opacity="1" fill-rule="nonzero"/><path fill="#280b06" d="M 21.15625 14.308594 C 20.902344 14.15625 20.632812 14.023438 20.378906 14.023438 C 20.257812 14.023438 20.125 14.054688 20.003906 14.125 C 19.9375 14.15625 19.886719 14.207031 19.835938 14.242188 C 19.785156 14.292969 19.71875 14.34375 19.667969 14.375 C 19.699219 14.308594 19.734375 14.242188 19.769531 14.175781 C 19.820312 14.105469 19.851562 14.039062 19.921875 13.988281 C 20.039062 13.871094 20.207031 13.800781 20.378906 13.800781 C 20.546875 13.800781 20.71875 13.851562 20.851562 13.953125 C 20.972656 14.054688 21.074219 14.175781 21.15625 14.308594 Z M 21.15625 14.308594 " fill-opacity="1" fill-rule="nonzero"/><path fill="#280b06" d="M 18.546875 14.425781 C 18.664062 14.933594 18.800781 15.425781 18.988281 15.898438 C 19.089844 16.136719 19.191406 16.355469 19.328125 16.578125 C 19.460938 16.78125 19.613281 16.984375 19.820312 17.117188 L 19.921875 17.203125 L 19.820312 17.289062 C 19.667969 17.40625 19.511719 17.492188 19.34375 17.558594 C 19.175781 17.625 19.003906 17.660156 18.835938 17.675781 C 18.664062 17.691406 18.496094 17.691406 18.328125 17.660156 C 18.15625 17.625 17.988281 17.589844 17.835938 17.523438 C 18.003906 17.542969 18.175781 17.558594 18.328125 17.558594 C 18.496094 17.558594 18.648438 17.542969 18.820312 17.523438 C 18.972656 17.492188 19.125 17.441406 19.277344 17.390625 C 19.410156 17.320312 19.5625 17.238281 19.667969 17.152344 L 19.683594 17.320312 C 19.460938 17.152344 19.277344 16.949219 19.140625 16.710938 C 18.988281 16.492188 18.886719 16.238281 18.800781 15.984375 C 18.71875 15.730469 18.648438 15.476562 18.613281 15.222656 C 18.582031 14.933594 18.546875 14.679688 18.546875 14.425781 Z M 18.546875 14.425781 " fill-opacity="1" fill-rule="nonzero"/><path fill="#f78a5a" d="M 16.632812 17.609375 C 16.632812 17.75 16.605469 17.886719 16.550781 18.015625 C 16.496094 18.148438 16.417969 18.261719 16.320312 18.363281 C 16.21875 18.460938 16.105469 18.539062 15.972656 18.59375 C 15.84375 18.648438 15.707031 18.675781 15.5625 18.675781 C 15.421875 18.675781 15.285156 18.648438 15.15625 18.59375 C 15.023438 18.539062 14.910156 18.460938 14.808594 18.363281 C 14.707031 18.261719 14.632812 18.148438 14.578125 18.015625 C 14.523438 17.886719 14.496094 17.75 14.496094 17.609375 C 14.496094 17.46875 14.523438 17.332031 14.578125 17.199219 C 14.632812 17.070312 14.707031 16.953125 14.808594 16.855469 C 14.910156 16.753906 15.023438 16.679688 15.15625 16.625 C 15.285156 16.570312 15.421875 16.542969 15.5625 16.542969 C 15.707031 16.542969 15.84375 16.570312 15.972656 16.625 C 16.105469 16.679688 16.21875 16.753906 16.320312 16.855469 C 16.417969 16.953125 16.496094 17.070312 16.550781 17.199219 C 16.605469 17.332031 16.632812 17.46875 16.632812 17.609375 Z M 16.632812 17.609375 " fill-opacity="1" fill-rule="nonzero"/><path fill="#f78a5a" d="M 21.378906 16.882812 C 21.277344 17.625 21.140625 18.371094 20.972656 18.960938 C 20.460938 18.878906 20.089844 18.4375 20.089844 17.914062 C 20.089844 17.320312 20.5625 16.847656 21.15625 16.847656 C 21.226562 16.847656 21.308594 16.863281 21.378906 16.882812 Z M 21.378906 16.882812 " fill-opacity="1" fill-rule="nonzero"/><path fill="#280b06" d="M 18.523438 18.65625 C 18.621094 18.667969 18.695312 18.730469 18.75 18.839844 C 18.804688 18.953125 18.824219 19.078125 18.804688 19.222656 C 18.785156 19.367188 18.730469 19.484375 18.648438 19.578125 C 18.566406 19.667969 18.476562 19.707031 18.378906 19.695312 C 18.28125 19.679688 18.207031 19.617188 18.152344 19.507812 C 18.09375 19.394531 18.078125 19.269531 18.097656 19.125 C 18.117188 18.980469 18.167969 18.863281 18.253906 18.773438 C 18.335938 18.679688 18.425781 18.640625 18.523438 18.65625 Z M 18.523438 18.65625 " fill-opacity="1" fill-rule="nonzero"/><path fill="#280b06" d="M 13.429688 15.984375 C 13.429688 15.984375 16.207031 15.460938 16.410156 12.175781 C 16.410156 12.175781 18.800781 14.074219 19.496094 11.839844 C 19.496094 11.839844 21.972656 13.734375 23.71875 11.789062 C 24.003906 11.464844 24.175781 11.027344 24.175781 10.585938 C 24.175781 9.386719 23.632812 7.066406 18.9375 8.386719 C 18.9375 8.386719 14.089844 6.035156 11.34375 10.28125 C 8.597656 14.527344 10.054688 18.742188 13.511719 19.386719 L 13.714844 18.675781 Z M 13.429688 15.984375 " fill-opacity="1" fill-rule="nonzero"/><path fill="#f5b990" d="M 13.429688 15.984375 C 13.429688 15.984375 12.277344 14.832031 11.53125 16.253906 C 10.785156 17.675781 12.378906 19.691406 13.714844 18.691406 L 14.292969 16.832031 Z M 13.429688 15.984375 " fill-opacity="1" fill-rule="nonzero"/><path fill="#280b06" d="M 12.023438 16.441406 C 12.191406 16.339844 12.394531 16.304688 12.597656 16.375 C 12.800781 16.425781 12.972656 16.59375 13.054688 16.78125 C 13.105469 16.863281 13.140625 16.964844 13.175781 17.050781 C 13.191406 17.152344 13.226562 17.238281 13.242188 17.339844 C 13.277344 17.523438 13.277344 17.726562 13.292969 17.914062 C 13.292969 17.980469 13.242188 18.03125 13.191406 18.03125 C 13.140625 18.03125 13.089844 17.996094 13.089844 17.964844 C 13.023438 17.761719 12.921875 17.558594 12.785156 17.390625 C 12.714844 17.304688 12.632812 17.238281 12.53125 17.203125 C 12.429688 17.167969 12.308594 17.1875 12.207031 17.21875 C 12.292969 17.152344 12.429688 17.101562 12.546875 17.117188 C 12.683594 17.136719 12.800781 17.203125 12.886719 17.289062 C 12.988281 17.371094 13.054688 17.472656 13.125 17.574219 C 13.191406 17.675781 13.242188 17.777344 13.292969 17.894531 L 13.074219 17.929688 C 13.054688 17.742188 13.054688 17.558594 13.023438 17.390625 C 12.988281 17.203125 12.953125 17.035156 12.886719 16.882812 C 12.816406 16.730469 12.714844 16.59375 12.5625 16.507812 C 12.394531 16.425781 12.207031 16.40625 12.023438 16.441406 Z M 12.023438 16.441406 " fill-opacity="1" fill-rule="nonzero"/><path fill="#f5b990" d="M 4.9375 35.425781 C 4.9375 35.425781 3.5625 42.363281 6.851562 43.175781 C 10.140625 43.988281 18.175781 39.539062 21.054688 35.425781 C 21.054688 35.425781 22.105469 35.613281 22.648438 34.359375 C 22.648438 34.359375 24.871094 34.476562 25.242188 33.96875 C 25.292969 33.902344 25.292969 33.835938 25.242188 33.765625 C 25.140625 33.648438 24.851562 33.480469 24.003906 33.34375 C 24.003906 33.34375 26.566406 32.582031 26.054688 31.617188 C 26.054688 31.617188 26.683594 31.058594 25.851562 30.855469 C 25.851562 30.855469 26.175781 30.398438 25.851562 30.179688 C 25.53125 29.960938 22.34375 30.351562 21.785156 30.992188 C 21.785156 30.992188 22.648438 30.027344 22.378906 29.402344 C 22.089844 28.777344 20.34375 30.738281 20.34375 30.738281 C 20.34375 30.738281 19.667969 31.566406 19.410156 32.328125 C 19.292969 32.683594 19.039062 32.972656 18.71875 33.140625 L 11.34375 36.847656 L 11.15625 35.375 Z M 4.9375 35.425781 " fill-opacity="1" fill-rule="nonzero"/><path fill="#006f5d" d="M 11.191406 22.835938 C 11.191406 22.835938 7.785156 24.257812 6.359375 26.527344 C 4.9375 28.792969 3.378906 35.816406 3.378906 35.816406 C 3.378906 35.816406 6.292969 37.472656 11.207031 35.816406 L 11.972656 27.183594 Z M 11.191406 22.835938 " fill-opacity="1" fill-rule="nonzero"/><path fill="#d67e57" d="M 23.445312 32.5 C 23.871094 32.246094 24.308594 32.074219 24.75 31.90625 C 25.207031 31.753906 25.648438 31.617188 26.140625 31.550781 C 25.71875 31.804688 25.277344 31.972656 24.835938 32.144531 C 24.378906 32.296875 23.921875 32.429688 23.445312 32.5 Z M 23.445312 32.5 " fill-opacity="1" fill-rule="nonzero"/><path fill="#d67e57" d="M 23.175781 31.617188 C 23.378906 31.515625 23.597656 31.433594 23.820312 31.347656 C 24.039062 31.261719 24.257812 31.179688 24.480469 31.109375 C 24.699219 31.042969 24.921875 30.957031 25.140625 30.890625 C 25.359375 30.824219 25.597656 30.773438 25.835938 30.753906 L 25.871094 30.753906 C 25.972656 30.773438 26.074219 30.804688 26.15625 30.855469 C 26.242188 30.90625 26.34375 30.992188 26.394531 31.109375 C 26.445312 31.246094 26.394531 31.382812 26.328125 31.464844 C 26.257812 31.550781 26.191406 31.636719 26.125 31.703125 L 26.140625 31.550781 C 26.226562 31.6875 26.257812 31.839844 26.257812 31.992188 C 26.242188 32.144531 26.15625 32.277344 26.054688 32.378906 C 25.851562 32.582031 25.617188 32.683594 25.394531 32.804688 C 24.9375 33.023438 24.480469 33.210938 24.003906 33.363281 C 24.445312 33.140625 24.886719 32.90625 25.328125 32.667969 C 25.53125 32.53125 25.769531 32.414062 25.902344 32.261719 C 25.972656 32.175781 26.023438 32.09375 26.039062 31.992188 C 26.054688 31.90625 26.023438 31.789062 25.972656 31.71875 L 25.921875 31.636719 L 25.988281 31.566406 C 26.054688 31.5 26.105469 31.449219 26.140625 31.382812 C 26.175781 31.3125 26.191406 31.261719 26.175781 31.210938 C 26.15625 31.128906 25.972656 31.027344 25.820312 30.992188 L 25.851562 30.992188 C 25.632812 31.007812 25.410156 31.058594 25.191406 31.109375 C 24.972656 31.160156 24.734375 31.210938 24.515625 31.28125 Z M 23.175781 31.617188 " fill-opacity="1" fill-rule="nonzero"/><path fill="#d67e57" d="M 24.886719 30.148438 C 25.023438 30.078125 25.175781 30.046875 25.328125 30.011719 C 25.480469 29.996094 25.632812 29.996094 25.800781 30.027344 C 25.886719 30.046875 25.972656 30.097656 26.039062 30.179688 C 26.074219 30.230469 26.089844 30.265625 26.105469 30.316406 C 26.125 30.367188 26.125 30.398438 26.125 30.449219 C 26.125 30.636719 26.023438 30.773438 25.886719 30.855469 C 25.9375 30.722656 25.972656 30.570312 25.9375 30.46875 C 25.9375 30.433594 25.921875 30.417969 25.902344 30.382812 C 25.886719 30.351562 25.871094 30.332031 25.871094 30.316406 C 25.835938 30.300781 25.800781 30.265625 25.734375 30.25 C 25.617188 30.214844 25.480469 30.199219 25.34375 30.179688 C 25.175781 30.179688 25.023438 30.164062 24.886719 30.148438 Z M 24.886719 30.148438 " fill-opacity="1" fill-rule="nonzero"/><path fill="#d67e57" d="M 22.394531 29.945312 C 22.394531 30.199219 22.308594 30.433594 22.191406 30.652344 C 22.125 30.753906 22.054688 30.875 21.972656 30.957031 C 21.886719 31.042969 21.785156 31.128906 21.648438 31.160156 C 21.71875 31.058594 21.769531 30.957031 21.820312 30.855469 L 21.988281 30.550781 C 22.105469 30.351562 22.226562 30.128906 22.394531 29.945312 Z M 22.394531 29.945312 " fill-opacity="1" fill-rule="nonzero"/><path fill="#d67e57" d="M 8.902344 38.097656 C 9.480469 37.691406 10.105469 37.371094 10.734375 37.050781 C 11.359375 36.730469 11.988281 36.441406 12.664062 36.203125 C 12.089844 36.609375 11.460938 36.929688 10.835938 37.253906 C 10.207031 37.558594 9.582031 37.863281 8.902344 38.097656 Z M 8.902344 38.097656 " fill-opacity="1" fill-rule="nonzero"/><path fill="#00453c" d="M 18.769531 27.8125 C 18.769531 27.953125 18.734375 28.070312 18.664062 28.171875 C 18.59375 28.269531 18.511719 28.320312 18.410156 28.320312 C 18.3125 28.320312 18.230469 28.269531 18.160156 28.171875 C 18.089844 28.070312 18.054688 27.953125 18.054688 27.8125 C 18.054688 27.671875 18.089844 27.550781 18.160156 27.453125 C 18.230469 27.355469 18.3125 27.304688 18.410156 27.304688 C 18.511719 27.304688 18.59375 27.355469 18.664062 27.453125 C 18.734375 27.550781 18.769531 27.671875 18.769531 27.8125 Z M 18.769531 27.8125 " fill-opacity="1" fill-rule="nonzero"/><path fill="#00453c" d="M 19.125 31.261719 C 19.125 31.402344 19.089844 31.523438 19.019531 31.621094 C 18.949219 31.722656 18.867188 31.769531 18.769531 31.769531 C 18.667969 31.769531 18.585938 31.722656 18.515625 31.621094 C 18.445312 31.523438 18.410156 31.402344 18.410156 31.261719 C 18.410156 31.125 18.445312 31.003906 18.515625 30.90625 C 18.585938 30.804688 18.667969 30.753906 18.769531 30.753906 C 18.867188 30.753906 18.949219 30.804688 19.019531 30.90625 C 19.089844 31.003906 19.125 31.125 19.125 31.261719 Z M 19.125 31.261719 " fill-opacity="1" fill-rule="nonzero"/><path fill="#00453c" d="M 7.445312 25.238281 C 7.851562 25.15625 8.257812 25.171875 8.664062 25.273438 C 9.074219 25.359375 9.460938 25.527344 9.800781 25.78125 C 10.140625 26.035156 10.445312 26.324219 10.664062 26.660156 L 10.75 26.78125 L 10.816406 26.914062 L 10.953125 27.183594 C 11.039062 27.371094 11.105469 27.558594 11.175781 27.761719 C 11.054688 27.589844 10.972656 27.40625 10.851562 27.253906 L 10.683594 27.015625 L 10.597656 26.898438 L 10.496094 26.78125 L 10.308594 26.558594 L 10.105469 26.355469 C 10.039062 26.289062 9.96875 26.222656 9.886719 26.171875 C 9.800781 26.121094 9.734375 26.035156 9.648438 26 C 9.328125 25.765625 8.96875 25.613281 8.597656 25.476562 C 8.242188 25.324219 7.851562 25.238281 7.445312 25.238281 Z M 7.445312 25.238281 " fill-opacity="1" fill-rule="nonzero"/><path fill="#00453c" d="M 11.34375 29.285156 C 11.378906 29.824219 11.394531 30.367188 11.394531 30.925781 C 11.410156 31.464844 11.394531 32.007812 11.378906 32.550781 C 11.359375 33.089844 11.34375 33.632812 11.308594 34.171875 L 11.257812 34.984375 C 11.226562 35.257812 11.207031 35.527344 11.191406 35.796875 C 11.175781 35.527344 11.15625 35.257812 11.15625 34.984375 L 11.140625 34.171875 C 11.125 33.632812 11.140625 33.089844 11.15625 32.550781 C 11.175781 32.007812 11.191406 31.464844 11.226562 30.925781 C 11.257812 30.367188 11.292969 29.824219 11.34375 29.285156 Z M 11.34375 29.285156 " fill-opacity="1" fill-rule="nonzero"/><path fill="#00453c" d="M 80.515625 52.210938 C 80.109375 52.210938 79.769531 52.058594 79.550781 51.753906 L 80.125 51.332031 C 80.3125 51.601562 80.890625 51.535156 81.535156 51.160156 C 82.6875 50.5 84.109375 48.84375 83.464844 47.335938 C 83.210938 46.726562 82.871094 46.390625 82.484375 46.304688 C 81.6875 46.152344 80.769531 47.066406 80.769531 47.082031 L 80.261719 46.59375 C 80.3125 46.542969 81.433594 45.390625 82.617188 45.613281 C 83.261719 45.730469 83.769531 46.222656 84.125 47.050781 C 84.941406 48.960938 83.3125 50.957031 81.890625 51.769531 C 81.382812 52.074219 80.921875 52.210938 80.515625 52.210938 Z M 80.515625 52.210938 " fill-opacity="1" fill-rule="nonzero"/><path fill="#006f5d" d="M 78.125 44.292969 L 74.839844 44.292969 L 75.972656 53.632812 L 80.261719 53.632812 L 81.398438 44.292969 Z M 78.125 44.292969 " fill-opacity="1" fill-rule="nonzero"/><path fill="#00453c" d="M 74.941406 45.105469 C 75.464844 45.054688 76.007812 45.035156 76.535156 45.019531 C 77.058594 45.003906 77.601562 45.003906 78.125 44.984375 C 78.652344 44.984375 79.195312 44.984375 79.71875 45.019531 L 80.515625 45.054688 C 80.789062 45.070312 81.042969 45.085938 81.3125 45.105469 C 81.042969 45.136719 80.789062 45.136719 80.515625 45.15625 L 79.71875 45.1875 C 79.195312 45.207031 78.652344 45.207031 78.125 45.222656 C 77.601562 45.222656 77.058594 45.222656 76.535156 45.1875 C 75.992188 45.171875 75.464844 45.15625 74.941406 45.105469 Z M 74.941406 45.105469 " fill-opacity="1" fill-rule="nonzero"/><path fill="#00453c" d="M 74.941406 45.96875 C 75.464844 45.917969 76.007812 45.898438 76.535156 45.882812 C 77.058594 45.867188 77.601562 45.867188 78.125 45.847656 C 78.652344 45.847656 79.195312 45.847656 79.71875 45.882812 L 80.515625 45.917969 C 80.789062 45.933594 81.042969 45.949219 81.3125 45.96875 C 81.042969 46 80.789062 46 80.515625 46.019531 L 79.71875 46.050781 C 79.195312 46.070312 78.652344 46.070312 78.125 46.085938 C 77.601562 46.085938 77.058594 46.085938 76.535156 46.050781 C 75.992188 46.035156 75.464844 46.019531 74.941406 45.96875 Z M 74.941406 45.96875 " fill-opacity="1" fill-rule="nonzero"/><path fill="#c592e9" d="M 41.125 21.058594 L 28.480469 21.058594 C 27.699219 21.058594 27.054688 20.433594 27.054688 19.640625 L 27.054688 11.0625 C 27.054688 10.28125 27.683594 9.640625 28.480469 9.640625 L 41.125 9.640625 C 41.90625 9.640625 42.546875 10.265625 42.546875 11.0625 L 42.546875 19.65625 C 42.53125 20.417969 41.90625 21.058594 41.125 21.058594 Z M 41.125 21.058594 " fill-opacity="1" fill-rule="nonzero"/><path fill="#c592e9" d="M 29.226562 22.90625 L 29.226562 20.925781 L 31.785156 20.925781 L 29.429688 23.007812 C 29.34375 23.074219 29.226562 23.007812 29.226562 22.90625 Z M 29.226562 22.90625 " fill-opacity="1" fill-rule="nonzero"/><path fill="#ffffff" d="M 35.160156 17.152344 L 33.886719 17.152344 C 33.886719 16.964844 33.886719 16.863281 33.886719 16.8125 C 33.886719 16.40625 33.953125 16.070312 34.089844 15.796875 C 34.226562 15.527344 34.496094 15.238281 34.902344 14.902344 C 35.3125 14.5625 35.546875 14.359375 35.632812 14.257812 C 35.75 14.089844 35.820312 13.921875 35.820312 13.71875 C 35.820312 13.445312 35.71875 13.210938 35.496094 13.023438 C 35.277344 12.835938 34.988281 12.734375 34.617188 12.734375 C 34.261719 12.734375 33.972656 12.835938 33.734375 13.039062 C 33.496094 13.242188 33.328125 13.546875 33.242188 13.972656 L 31.953125 13.820312 C 31.988281 13.226562 32.242188 12.71875 32.71875 12.3125 C 33.191406 11.90625 33.800781 11.6875 34.566406 11.6875 C 35.363281 11.6875 36.003906 11.890625 36.480469 12.3125 C 36.953125 12.734375 37.191406 13.210938 37.191406 13.769531 C 37.191406 14.074219 37.109375 14.359375 36.9375 14.648438 C 36.769531 14.917969 36.394531 15.289062 35.820312 15.765625 C 35.53125 16 35.34375 16.203125 35.277344 16.355469 C 35.191406 16.492188 35.160156 16.761719 35.160156 17.152344 Z M 33.886719 18.320312 C 33.886719 17.929688 34.191406 17.625 34.582031 17.625 C 34.972656 17.625 35.277344 17.929688 35.277344 18.320312 C 35.277344 18.707031 34.972656 19.011719 34.582031 19.011719 C 34.210938 19.03125 33.886719 18.707031 33.886719 18.320312 Z M 33.886719 18.320312 " fill-opacity="1" fill-rule="nonzero"/></svg>